<svg width="64" height="64" viewBox="0 0 64 64" fill="none" xmlns="http://www.w3.org/2000/svg">
<path fill-rule="evenodd" clip-rule="evenodd" d="M20.7499 13.875C20.7499 13.3287 26.3949 9.5 31.9999 9.5C37.6049 9.5 43.2499 13.3287 43.2499 13.875C43.2499 15.825 43.0424 16.98 42.8674 17.6088C42.7512 18.0213 42.3649 18.25 41.9362 18.25H22.0637C21.6349 18.25 21.2487 18.0213 21.1324 17.6088C20.9574 16.98 20.7499 15.825 20.7499 13.875ZM30.1249 13.25C29.7934 13.25 29.4755 13.3817 29.241 13.6161C29.0066 13.8505 28.8749 14.1685 28.8749 14.5C28.8749 14.8315 29.0066 15.1495 29.241 15.3839C29.4755 15.6183 29.7934 15.75 30.1249 15.75H33.8749C34.2064 15.75 34.5244 15.6183 34.7588 15.3839C34.9932 15.1495 35.1249 14.8315 35.1249 14.5C35.1249 14.1685 34.9932 13.8505 34.7588 13.6161C34.5244 13.3817 34.2064 13.25 33.8749 13.25H30.1249ZM22.0474 26.0225C17.8849 24.735 18.9349 22.435 20.5224 20.75H43.8249C45.0949 22.3725 45.7762 24.5613 41.9374 25.8713C41.9791 26.2421 41.9999 26.6183 41.9999 27C41.9994 28.3541 41.7238 29.694 41.19 30.9384C40.6562 32.1828 39.8752 33.3058 38.8944 34.2394C37.9136 35.173 36.7534 35.8976 35.4841 36.3694C34.2149 36.8412 32.8631 37.0503 31.5106 36.984C30.1581 36.9178 28.8332 36.5775 27.6162 35.9839C26.3991 35.3903 25.3153 34.5558 24.4305 33.5308C23.5456 32.5058 22.8781 31.3118 22.4685 30.0212C22.0588 28.7305 21.9156 27.3702 22.0474 26.0225ZM31.6599 27C34.9624 27 37.5224 26.825 39.4849 26.52C39.4949 26.6783 39.4999 26.8383 39.4999 27C39.499 28.0009 39.2978 28.9916 38.9081 29.9135C38.5184 30.8354 37.9481 31.6701 37.2308 32.3682C36.5135 33.0662 35.6637 33.6137 34.7315 33.9782C33.7993 34.3428 32.8036 34.5171 31.803 34.4908C30.8024 34.4645 29.8172 34.2382 28.9054 33.8252C27.9937 33.4122 27.1738 32.8209 26.4941 32.0861C25.8145 31.3513 25.2888 30.4879 24.948 29.5468C24.6072 28.6057 24.4583 27.6058 24.5099 26.6062C26.3387 26.8587 28.6824 27 31.6599 27ZM42.5212 45.25C41.3907 43.4858 39.8344 42.0345 37.9958 41.0297C36.1572 40.0248 34.0952 39.4988 31.9999 39.5C29.9038 39.4984 27.8409 40.0245 26.0015 41.0299C24.1622 42.0352 22.6055 43.4873 21.4749 45.2525C21.0544 44.607 20.4103 44.1396 19.6662 43.94L17.2512 43.2937C16.4507 43.0792 15.5978 43.1913 14.88 43.6055C14.1622 44.0197 13.6384 44.7021 13.4237 45.5025L12.4537 49.125C12.3474 49.5214 12.3203 49.9349 12.3739 50.3418C12.4275 50.7487 12.5607 51.1411 12.7659 51.4965C12.9711 51.8519 13.2443 52.1634 13.57 52.4133C13.8956 52.6631 14.2672 52.8463 14.6637 52.9525L17.0774 53.6C17.4835 53.7088 17.9073 53.7345 18.3236 53.6757C18.7398 53.6168 19.1399 53.4746 19.4999 53.2575C19.5009 53.589 19.6336 53.9066 19.8687 54.1403C20.1038 54.374 20.4222 54.5047 20.7537 54.5037C21.0852 54.5028 21.4027 54.3701 21.6365 54.135C21.8702 53.8999 22.0009 53.5815 21.9999 53.25V52C21.9999 51.5233 22.0324 51.0554 22.0974 50.5962L28.6024 52.34C28.9044 52.9863 29.3844 53.5331 29.9862 53.9162C30.588 54.2992 31.2866 54.5027 31.9999 54.5027C32.7133 54.5027 33.4119 54.2992 34.0136 53.9162C34.6154 53.5331 35.0955 52.9863 35.3974 52.34L41.9024 50.5962C41.9666 51.0554 41.9991 51.5233 41.9999 52V53.25C41.9983 53.5815 42.1284 53.9001 42.3616 54.1357C42.5949 54.3713 42.9122 54.5046 43.2437 54.5063C43.5752 54.5079 43.8938 54.3778 44.1294 54.1446C44.365 53.9113 44.4983 53.594 44.4999 53.2625C45.1999 53.6825 46.0649 53.8287 46.9162 53.6L49.3312 52.9538C49.7276 52.8476 50.0993 52.6643 50.4249 52.4145C50.7505 52.1647 51.0237 51.8532 51.2289 51.4977C51.4342 51.1423 51.5674 50.75 51.6209 50.3431C51.6745 49.9361 51.6474 49.5227 51.5412 49.1263L50.5699 45.5038C50.3552 44.7033 49.8313 44.021 49.1136 43.6068C48.3958 43.1925 47.5429 43.0804 46.7424 43.295L44.3274 43.9413C43.585 44.1401 42.942 44.6069 42.5212 45.25ZM22.7537 48.1825C23.4293 46.5498 24.5249 45.125 25.9294 44.0528C27.3338 42.9805 28.9969 42.299 30.7499 42.0775V47.2138C30.1894 47.4118 29.684 47.7403 29.2754 48.1722C28.8668 48.604 28.5667 49.1269 28.3999 49.6975L22.7537 48.1825ZM41.2462 48.1825C40.5705 46.5498 39.4749 45.125 38.0705 44.0528C36.6661 42.9805 35.0029 42.299 33.2499 42.0775V47.2138C34.3799 47.6138 35.2624 48.5388 35.5999 49.6975L41.2462 48.1825ZM31.9999 52C32.3314 52 32.6494 51.8683 32.8838 51.6339C33.1182 51.3995 33.2499 51.0815 33.2499 50.75C33.2499 50.4185 33.1182 50.1005 32.8838 49.8661C32.6494 49.6317 32.3314 49.5 31.9999 49.5C31.6684 49.5 31.3505 49.6317 31.116 49.8661C30.8816 50.1005 30.7499 50.4185 30.7499 50.75C30.7499 51.0815 30.8816 51.3995 31.116 51.6339C31.3505 51.8683 31.6684 52 31.9999 52Z" fill="#DC143C"/>
</svg>
