<svg width="64" height="64" viewBox="0 0 64 64" fill="none" xmlns="http://www.w3.org/2000/svg">
<path d="M50.0966 38.2646L40.7006 33.7826L36.7274 31.8872C38.4626 30.794 39.872 29.1068 40.7942 27.0746C41.5642 25.3806 41.9621 23.5413 41.9612 21.6806C41.9612 20.5844 41.7872 19.5434 41.5448 18.539C40.3628 13.6718 36.5618 10.0862 31.9988 10.0862C27.5222 10.0862 23.7788 13.544 22.5236 18.2726C22.2338 19.3574 22.0346 20.4854 22.0346 21.6806C22.0346 23.756 22.5194 25.691 23.3432 27.374C24.2954 29.3264 25.7072 30.9362 27.4256 31.9712L23.6204 33.743L13.9196 38.261C13.0772 38.6558 12.5234 39.6062 12.5234 40.6676V51.3266C12.5234 52.7552 13.5188 53.9132 14.7476 53.9132H29.1554V45.752C29.158 45.6679 29.1826 45.586 29.2268 45.5144L29.2208 45.5108L31.5806 41.4236L31.5866 41.4272C31.6706 41.2832 31.82 41.1812 31.9988 41.1812C32.1776 41.1812 32.327 41.2826 32.411 41.4272L32.4134 41.4254L32.435 41.4632L32.4446 41.48L34.7732 45.5126L34.7702 45.5144C34.8146 45.5861 34.8392 45.6683 34.8416 45.7526V53.9138H49.2494C50.4782 53.9138 51.4742 52.7558 51.4742 51.3272V40.6676C51.476 39.6098 50.9312 38.6684 50.0966 38.2646ZM34.772 35.5316L34.778 35.5352L32.4176 39.6224L32.4116 39.6188C32.3705 39.6922 32.3107 39.7536 32.2384 39.7967C32.166 39.8397 32.0836 39.863 31.9994 39.8642C31.9152 39.863 31.8328 39.8397 31.7605 39.7967C31.6881 39.7536 31.6284 39.6922 31.5872 39.6188L31.5842 39.6206L31.5602 39.5792L31.553 39.5672L29.2244 35.5334L29.2268 35.5316C29.1825 35.4598 29.1579 35.3777 29.1554 35.2934C29.1554 35.0264 29.372 34.8098 29.639 34.8098H34.3586C34.6256 34.8098 34.8422 35.0264 34.8422 35.2934C34.8413 35.3777 34.817 35.4602 34.772 35.5316Z" fill="#DC143C"/>
</svg>
