<svg width="64" height="64" viewBox="0 0 64 64" fill="none" xmlns="http://www.w3.org/2000/svg">
<path d="M60.125 20.75V26.375C60.125 26.8723 59.9275 27.3492 59.5758 27.7008C59.2242 28.0525 58.7473 28.25 58.25 28.25C57.7527 28.25 57.2758 28.0525 56.9242 27.7008C56.5725 27.3492 56.375 26.8723 56.375 26.375V20.75C56.375 20.2527 56.5725 19.7758 56.9242 19.4242C57.2758 19.0725 57.7527 18.875 58.25 18.875C58.7473 18.875 59.2242 19.0725 59.5758 19.4242C59.9275 19.7758 60.125 20.2527 60.125 20.75ZM5.75 18.875C5.25272 18.875 4.77581 19.0725 4.42417 19.4242C4.07254 19.7758 3.875 20.2527 3.875 20.75V26.375C3.875 26.8723 4.07254 27.3492 4.42417 27.7008C4.77581 28.0525 5.25272 28.25 5.75 28.25C6.24728 28.25 6.72419 28.0525 7.07583 27.7008C7.42746 27.3492 7.625 26.8723 7.625 26.375V20.75C7.625 20.2527 7.42746 19.7758 7.07583 19.4242C6.72419 19.0725 6.24728 18.875 5.75 18.875ZM52.625 17V50.75C52.625 51.7446 52.2299 52.6984 51.5266 53.4016C50.8234 54.1049 49.8696 54.5 48.875 54.5H45.125C44.1304 54.5 43.1766 54.1049 42.4734 53.4016C41.7701 52.6984 41.375 51.7446 41.375 50.75V48.875H22.625V50.75C22.625 51.7446 22.2299 52.6984 21.5266 53.4016C20.8234 54.1049 19.8696 54.5 18.875 54.5H15.125C14.1304 54.5 13.1766 54.1049 12.4733 53.4016C11.7701 52.6984 11.375 51.7446 11.375 50.75V17C11.375 15.0109 12.1652 13.1032 13.5717 11.6967C14.9782 10.2902 16.8859 9.5 18.875 9.5H45.125C47.1141 9.5 49.0218 10.2902 50.4283 11.6967C51.8348 13.1032 52.625 15.0109 52.625 17ZM26.375 36.6875C26.375 36.1312 26.2101 35.5875 25.901 35.125C25.592 34.6624 25.1527 34.302 24.6388 34.0891C24.1249 33.8762 23.5594 33.8205 23.0138 33.929C22.4682 34.0376 21.9671 34.3054 21.5738 34.6988C21.1804 35.0921 20.9126 35.5932 20.804 36.1388C20.6955 36.6844 20.7512 37.2499 20.9641 37.7638C21.177 38.2777 21.5374 38.717 22 39.026C22.4625 39.335 23.0062 39.5 23.5625 39.5C24.3084 39.5 25.0238 39.2037 25.5512 38.6762C26.0787 38.1488 26.375 37.4334 26.375 36.6875ZM43.25 36.6875C43.25 36.1312 43.085 35.5875 42.776 35.125C42.467 34.6624 42.0277 34.302 41.5138 34.0891C40.9999 33.8762 40.4344 33.8205 39.8888 33.929C39.3432 34.0376 38.8421 34.3054 38.4488 34.6988C38.0554 35.0921 37.7876 35.5932 37.679 36.1388C37.5705 36.6844 37.6262 37.2499 37.8391 37.7638C38.052 38.2777 38.4124 38.717 38.875 39.026C39.3375 39.335 39.8812 39.5 40.4375 39.5C41.1834 39.5 41.8988 39.2037 42.4262 38.6762C42.9537 38.1488 43.25 37.4334 43.25 36.6875ZM48.875 18.875H15.125V28.25H48.875V18.875Z" fill="#DC143C"/>
</svg>
